<?xml version="1.0" encoding="utf-8"?>
<!-- Generator: Adobe Illustrator 19.1.0, SVG Export Plug-In . SVG Version: 6.00 Build 0)  -->
<svg version="1.1" id="Layer_1" xmlns="http://www.w3.org/2000/svg" xmlns:xlink="http://www.w3.org/1999/xlink" x="0px" y="0px"
	 viewBox="-394 196 170 170" style="enable-background:new -394 196 170 170;" xml:space="preserve">
<style type="text/css">
	.st0{fill:#FFFFFF;}
</style>
<g>
	<title>Layer 1</title>
	<g id="svg_1">
		<path class="st0" d="M-266.2,286c0.2,24.2,21.2,32.3,21.5,32.4c-0.2,0.6-3.4,11.5-11.1,22.8c-6.7,9.7-13.6,19.5-24.5,19.7
			c-10.7,0.2-14.2-6.4-26.4-6.4c-12.2,0-16.1,6.2-26.2,6.6c-10.5,0.4-18.5-10.5-25.3-20.3c-13.7-19.9-24.2-56.1-10.1-80.6
			c7-12.2,19.5-19.9,33.1-20.1c10.3-0.2,20.1,7,26.4,7c6.3,0,18.2-8.6,30.6-7.3c5.2,0.2,19.9,2.1,29.3,15.9
			C-249.7,256-266.4,265.8-266.2,286 M-286.3,226.5c5.6-6.8,9.3-16.2,8.3-25.5c-8.1,0.3-17.8,5.4-23.6,12.1
			c-5.2,6-9.7,15.6-8.5,24.7C-301.1,238.6-291.9,233.3-286.3,226.5"/>
	</g>
</g>
</svg>
